# xmcd
#
# Track frame offsets:
#	150
#	22344
#	46001
#	84673
#	113719
#	138058
#	162606
#	184866
#	207912
#
# Disc length: 3089
#
# Revision: 1
# Processed by: cddbd v1.5.1PL0 Copyright (c) Steve Scherf et al.
# Submitted via: EasyCDDAExtractor 5.0.5.1
# Normalized: r0:DSETVAR1
#
DISCID=770c0f09
DTITLE=Various Artist - Limited Edition Remix CD
DYEAR=2004
DGENRE=Pop
TTITLE0=Say what you want (Rae and Christian Mix)
TTITLE1=Summer Son (Giorgio Moroder Mix)
TTITLE2=Black eyed boy (Trailermen Black Eyed Disco Mix)
TTITLE3=In our lifetime (Jules´Disco Trip Mix)
TTITLE4=In demand (Sunship Mix)
TTITLE5=Put your arms around me ( Weatherall´s Electric for Bird Mix)
TTITLE6=Inner smile (Rae and Christian Basement Mix)
TTITLE7=Texas - So in love with you (Youth Mix)
TTITLE8=I´ll see it through ( Roger Sanchez Mix)
EXTD=
EXTT0=
EXTT1=
EXTT2=
EXTT3=
EXTT4=
EXTT5=
EXTT6=
EXTT7=
EXTT8=
PLAYORDER=
